<svg viewBox="-576 -278 1152 556" width="1152" height="556" style="background-color: rgb(255, 255, 255);" xmlns="http://www.w3.org/2000/svg"><path d="M-55.4009632985915,-0.08708241913205785L-60.78826532823384,-0.8416053499517963M-60.78826532823384,-27.301441178428146L-60.78826532823384,-0.8416053499517963M-60.78826532823384,-0.8416053499517963L-70.96694403228672,8.848359065994941M-55.4009632985915,-26.546918247608403L-55.4009632985915,-0.08708241913205785M-55.4009632985915,-0.08708241913205785L-65.57964200264438,9.602881996814682" style="fill:none;stroke:rgb(0,0,0);stroke-width:1;stroke-linecap:round"></path><path d="M-55.40096329859149,-0.08708241913205682L-60.78826532823384,-0.8416053499517951L-60.78826532823384,-27.30144117842814zM-55.40096329859149,-26.5469182476084L-55.40096329859149,-0.08708241913205682L-60.78826532823384,-27.30144117842814zM-70.96694403228672,8.848359065994943L-60.78826532823384,-0.8416053499517951L-55.40096329859149,-0.08708241913205682z" style="fill:rgb(238,238,238); fill-opacity: 0.42"></path><path d="M-24.53182339090762,2.245412053505726L-46.9141708703113,-0.8893656749125616M-46.9141708703113,-20.482921010200418L-46.9141708703113,-0.8893656749125616M-46.9141708703113,-0.8893656749125616L-54.45150049400233,6.286070152111445M-55.4009632985915,-26.546918247608403L-60.78826532823384,-27.301441178428146M-60.78826532823384,-27.301441178428146L-70.96694403228672,-17.611476762481406M-55.4009632985915,-26.546918247608403L-65.57964200264438,-16.856953831661663" style="fill:none;stroke:rgb(0,0,0);stroke-width:1;stroke-linecap:round"></path><path d="M-65.57964200264436,9.602881996814682L-55.40096329859149,-0.08708241913205682L-55.40096329859149,-26.5469182476084z" style="fill:rgb(238,238,238); fill-opacity: 0.42"></path><path d="M-24.958253654145928,-6.761423888056375L-47.34060113354962,-9.896201616474661M-47.34060113354962,-12.340914035748073L-47.34060113354962,-9.896201616474661M-47.34060113354962,-9.896201616474661L-48.281043183186654,-9.00091350873486" style="fill:none;stroke:rgb(0,0,0);stroke-width:1;stroke-linecap:round"></path><path d="M-60.78826532823384,-27.30144117842814L-60.78826532823384,-0.8416053499517951L-70.96694403228672,-17.611476762481402zM-24.53182339090762,2.245412053505726L-46.91417087031131,-0.8893656749125614L-46.91417087031131,-20.48292101020041z" style="fill:rgb(238,238,238); fill-opacity: 0.42"></path><path d="M-24.958253654145928,-9.206136307329785L-47.34060113354962,-12.340914035748073M-47.34060113354962,-12.340914035748073L-48.281043183186654,-11.44562592800827" style="fill:none;stroke:rgb(0,0,0);stroke-width:1;stroke-linecap:round"></path><path d="M-47.34060113354962,-12.340914035748073L-47.34060113354962,-9.89620161647466L-48.28104318318666,-11.445625928008273zM-47.34060113354962,-9.89620161647466L-48.28104318318666,-9.00091350873486L-48.28104318318666,-11.445625928008273z" style="fill:rgb(153,221,255); fill-opacity: 0.4"></path><path d="M-48.281043183186654,-11.44562592800827L-48.281043183186654,-9.00091350873486M-48.281043183186654,-9.00091350873486L-25.898695703782966,-5.866135780316571M-24.53182339090762,-17.34814328178213L-46.9141708703113,-20.482921010200418M-46.9141708703113,-20.482921010200418L-54.45150049400233,-13.307485183176409" style="fill:none;stroke:rgb(0,0,0);stroke-width:1;stroke-linecap:round"></path><path d="M-24.958253654145928,-6.761423888056374L-47.34060113354962,-9.89620161647466L-47.34060113354962,-12.340914035748073z" style="fill:rgb(153,221,255); fill-opacity: 0.4"></path><path d="M-65.57964200264436,9.602881996814682L-70.96694403228672,8.848359065994943L-55.40096329859149,-0.08708241913205682z" style="fill:rgb(238,238,238); fill-opacity: 0.42"></path><path d="M-48.281043183186654,-11.44562592800827L-25.898695703782966,-8.310848199589984M-24.53182339090762,-17.34814328178213L-24.53182339090762,2.245412053505726M-24.53182339090762,2.245412053505726L-32.06915301459865,9.420847880529731" style="fill:none;stroke:rgb(0,0,0);stroke-width:1;stroke-linecap:round"></path><path d="M-48.28104318318666,-9.00091350873486L-47.34060113354962,-9.89620161647466L-24.958253654145928,-6.761423888056374z" style="fill:rgb(153,221,255); fill-opacity: 0.4"></path><path d="M-54.45150049400233,6.286070152111445L-46.91417087031131,-0.8893656749125614L-24.53182339090762,2.245412053505726z" style="fill:rgb(238,238,238); fill-opacity: 0.42"></path><path d="M-48.28104318318666,-11.445625928008273L-25.89869570378297,-8.310848199589984L-47.34060113354962,-12.340914035748073z" style="fill:rgb(153,221,255); fill-opacity: 0.4"></path><path d="M-65.57964200264436,-16.856953831661666L-55.40096329859149,-26.5469182476084L-60.78826532823384,-27.30144117842814zM-60.78826532823384,-0.8416053499517951L-70.96694403228672,8.848359065994943L-70.96694403228672,-17.611476762481402z" style="fill:rgb(238,238,238); fill-opacity: 0.42"></path><path d="M-48.28104318318666,-11.445625928008273L-48.28104318318666,-9.00091350873486L-25.89869570378297,-8.310848199589984z" style="fill:rgb(153,221,255); fill-opacity: 0.4"></path><path d="M-24.53182339090762,-17.348143281782125L-24.53182339090762,2.245412053505726L-46.91417087031131,-20.48292101020041z" style="fill:rgb(238,238,238); fill-opacity: 0.42"></path><path d="M-24.958253654145928,-9.206136307329785L-24.958253654145928,-6.761423888056374L-47.34060113354962,-12.340914035748073z" style="fill:rgb(153,221,255); fill-opacity: 0.4"></path><path d="M-61.34267321986817,-10.40149991767365L-66.72997524951052,-11.15602284849339M-66.72997524951052,-16.5343901708949L-66.72997524951052,-11.15602284849339M-66.72997524951052,-11.15602284849339L-68.798947758712,-9.186389011465822" style="fill:none;stroke:rgb(0,0,0);stroke-width:1;stroke-linecap:round"></path><path d="M-46.91417087031131,-20.48292101020041L-46.91417087031131,-0.8893656749125614L-54.45150049400233,-13.307485183176407z" style="fill:rgb(238,238,238); fill-opacity: 0.42"></path><path d="M-25.89869570378297,-5.866135780316571L-48.28104318318666,-9.00091350873486L-24.958253654145928,-6.761423888056374zM-25.89869570378297,-8.310848199589984L-24.958253654145928,-9.206136307329785L-47.34060113354962,-12.340914035748073zM-61.34267321986817,-10.40149991767365L-66.72997524951052,-11.156022848493388L-66.72997524951052,-16.5343901708949z" style="fill:rgb(153,221,255); fill-opacity: 0.4"></path><path d="M-61.34267321986817,-15.779867240075157L-61.34267321986817,-10.40149991767365M-61.34267321986817,-10.40149991767365L-63.411645729069654,-8.431866080646083M-61.342672930257336,-15.779867277888107L-61.342672930257336,-10.401499955486598M-61.342672930257336,-10.401499955486598L-63.41164534977128,-8.43186620384036M-61.342672930257336,-10.401499955486598L-52.080055960122465,-9.789296249324286" style="fill:none;stroke:rgb(0,0,0);stroke-width:1;stroke-linecap:round"></path><path d="M-48.28104318318666,-9.00091350873486L-25.89869570378297,-5.866135780316571L-25.89869570378297,-8.310848199589984z" style="fill:rgb(153,221,255); fill-opacity: 0.4"></path><path d="M-24.958253148476242,-9.206136431450247L-24.958253148476242,-6.761423895603862M-24.958253148476242,-6.761423895603862L-25.898695198113284,-5.866135787864059M-24.958253148476242,-6.761423895603862L-16.130929017397794,-5.528253111208123M-24.958253654145928,-9.206136307329785L-24.958253654145928,-6.761423888056375M-24.958253654145928,-6.761423888056375L-25.898695703782966,-5.866135780316571M-61.34267321986817,-15.779867240075157L-66.72997524951052,-16.5343901708949M-66.72997524951052,-16.5343901708949L-68.798947758712,-14.564756333867331" style="fill:none;stroke:rgb(0,0,0);stroke-width:1;stroke-linecap:round"></path><path d="M-68.798947758712,-9.186389011465822L-66.72997524951052,-11.156022848493388L-61.34267321986817,-10.40149991767365zM-61.34267321986817,-15.779867240075157L-61.34267321986817,-10.40149991767365L-66.72997524951052,-16.5343901708949z" style="fill:rgb(153,221,255); fill-opacity: 0.4"></path><path d="M-24.958253654145928,-9.206136307329785L-25.898695703782966,-8.310848199589984M-24.958253148476242,-9.206136431450247L-25.898695198113284,-8.310848323710445M-24.958253148476242,-9.206136431450247L-16.130929017397794,-5.528253111208123" style="fill:none;stroke:rgb(0,0,0);stroke-width:1;stroke-linecap:round"></path><path d="M-66.72997524951052,-16.5343901708949L-66.72997524951052,-11.156022848493388L-68.798947758712,-14.564756333867331z" style="fill:rgb(153,221,255); fill-opacity: 0.4"></path><path d="M-24.958253726126262,-9.206136317411051L-24.958253726126262,-6.761423898137637L-25.898695775763304,-5.866135790397835z" style="fill:rgb(255,187,187); fill-opacity: 0.4"></path><path d="M-25.89869570378297,-5.866135780316571L-24.958253654145928,-6.761423888056374L-24.958253654145928,-9.206136307329785z" style="fill:rgb(153,221,255); fill-opacity: 0.4"></path><path d="M11.79859521977739,6.325002680457123L-15.393477499840753,2.5165950042994467M-15.393477499840753,-13.598152389364177L-15.393477499840753,2.5165950042994467M-15.393477499840753,2.5165950042994467L-21.592564946201556,8.418042383973635M-70.96694403228672,-17.611476762481406L-70.96694403228672,8.848359065994941M-70.96694403228672,8.848359065994941L-65.57964200264438,9.602881996814682M-61.34267321986817,-15.779867240075157L-63.411645729069654,-13.810233403047592M-61.342672930257336,-15.779867277888107L-63.41164534977128,-13.810233526241866M-61.342672930257336,-15.779867277888107L-52.080055960122465,-9.789296249324286" style="fill:none;stroke:rgb(0,0,0);stroke-width:1;stroke-linecap:round"></path><path d="M-46.91417087031131,-0.8893656749125614L-54.45150049400233,6.286070152111445L-54.45150049400233,-13.307485183176407z" style="fill:rgb(238,238,238); fill-opacity: 0.42"></path><path d="M-66.72997524951052,-11.156022848493388L-68.798947758712,-9.186389011465822L-68.798947758712,-14.564756333867331z" style="fill:rgb(153,221,255); fill-opacity: 0.4"></path><path d="M-24.958253726126262,-9.206136317411051L-25.898695775763304,-5.866135790397835L-25.898695775763304,-8.310848209671247z" style="fill:rgb(255,187,187); fill-opacity: 0.4"></path><path d="M-25.89869570378297,-8.310848199589984L-25.89869570378297,-5.866135780316571L-24.958253654145928,-9.206136307329785z" style="fill:rgb(153,221,255); fill-opacity: 0.4"></path><path d="M-25.898695198113284,-5.866135787864059L-25.898695198113284,-8.310848323710445M-25.898695198113284,-5.866135787864059L-16.130929017397794,-5.528253111208123M-25.898695703782966,-8.310848199589984L-25.898695703782966,-5.866135780316571" style="fill:none;stroke:rgb(0,0,0);stroke-width:1;stroke-linecap:round"></path><path d="M-61.34267326849871,-15.779867246886148L-61.34267326849871,-10.401499924484638L-63.411645777700194,-8.431866087457072z" style="fill:rgb(255,187,187); fill-opacity: 0.4"></path><path d="M-63.411645729069654,-8.431866080646083L-61.34267321986817,-10.40149991767365L-61.34267321986817,-15.779867240075157z" style="fill:rgb(153,221,255); fill-opacity: 0.4"></path><path d="M-61.34267326849871,-10.401499924484638L-61.34267326849871,-15.779867246886148L-52.080056325195066,-9.789296493075136zM-24.958253726126262,-6.761423898137637L-24.958253726126262,-9.206136317411051L-16.13092958662799,-5.528253105937881z" style="fill:rgb(255,187,187); fill-opacity: 0.4"></path><path d="M-65.57964200264436,-16.856953831661666L-65.57964200264436,9.602881996814682L-55.40096329859149,-26.5469182476084z" style="fill:rgb(238,238,238); fill-opacity: 0.42"></path><path d="M-63.411645729069654,-8.431866080646083L-68.798947758712,-9.186389011465822L-61.34267321986817,-10.40149991767365z" style="fill:rgb(153,221,255); fill-opacity: 0.4"></path><path d="M-25.898695775763304,-5.866135790397835L-24.958253726126262,-6.761423898137637L-16.13092958662799,-5.528253105937881z" style="fill:rgb(255,187,187); fill-opacity: 0.4"></path><path d="M-24.53182339090762,-17.34814328178213L-32.06915301459865,-10.172707454758122M-68.798947758712,-14.564756333867331L-68.798947758712,-9.186389011465822M-68.798947758712,-9.186389011465822L-63.411645729069654,-8.431866080646083" style="fill:none;stroke:rgb(0,0,0);stroke-width:1;stroke-linecap:round"></path><path d="M-63.411645729069654,-13.810233403047594L-61.34267321986817,-15.779867240075157L-66.72997524951052,-16.5343901708949z" style="fill:rgb(153,221,255); fill-opacity: 0.4"></path><path d="M-25.898695198113284,-8.310848323710445L-16.130929017397794,-5.528253111208123" style="fill:none;stroke:rgb(0,0,0);stroke-width:1;stroke-linecap:round"></path><path d="M-63.411645777700194,-8.431866087457072L-61.34267326849871,-10.401499924484638L-52.080056325195066,-9.789296493075136zM-24.958253726126262,-9.206136317411051L-25.898695775763304,-8.310848209671247L-16.13092958662799,-5.528253105937881z" style="fill:rgb(255,187,187); fill-opacity: 0.4"></path><path d="M-65.57964200264438,-16.856953831661663L-65.57964200264438,9.602881996814682" style="fill:none;stroke:rgb(0,0,0);stroke-width:1;stroke-linecap:round"></path><path d="M-32.06915301459865,9.420847880529733L-24.53182339090762,2.245412053505726L-24.53182339090762,-17.348143281782125z" style="fill:rgb(238,238,238); fill-opacity: 0.42"></path><path d="M-25.898695775763304,-8.310848209671247L-25.898695775763304,-5.866135790397835L-16.13092958662799,-5.528253105937881z" style="fill:rgb(255,187,187); fill-opacity: 0.4"></path><path d="M-68.798947758712,-14.564756333867331L-63.411645729069654,-13.810233403047594L-66.72997524951052,-16.5343901708949z" style="fill:rgb(153,221,255); fill-opacity: 0.4"></path><path d="M-61.34267326849871,-15.779867246886148L-63.411645777700194,-8.431866087457072L-63.411645777700194,-13.810233409858581z" style="fill:rgb(255,187,187); fill-opacity: 0.4"></path><path d="M-63.411645729069654,-13.810233403047594L-63.411645729069654,-8.431866080646083L-61.34267321986817,-15.779867240075157z" style="fill:rgb(153,221,255); fill-opacity: 0.4"></path><path d="M-61.34267326849871,-15.779867246886148L-63.411645777700194,-13.810233409858581L-52.080056325195066,-9.789296493075136z" style="fill:rgb(255,187,187); fill-opacity: 0.4"></path><path d="M-70.96694403228672,-17.611476762481402L-65.57964200264436,-16.856953831661666L-60.78826532823384,-27.30144117842814zM-32.06915301459865,9.420847880529733L-54.45150049400233,6.286070152111445L-24.53182339090762,2.245412053505726z" style="fill:rgb(238,238,238); fill-opacity: 0.42"></path><path d="M-63.41164534977128,-8.43186620384036L-63.41164534977128,-13.810233526241866M-63.41164534977128,-8.43186620384036L-52.080055960122465,-9.789296249324286M-63.411645729069654,-13.810233403047592L-63.411645729069654,-8.431866080646083" style="fill:none;stroke:rgb(0,0,0);stroke-width:1;stroke-linecap:round"></path><path d="M-68.798947758712,-9.186389011465822L-63.411645729069654,-8.431866080646083L-63.411645729069654,-13.810233403047594zM-68.798947758712,-14.564756333867331L-68.798947758712,-9.186389011465822L-63.411645729069654,-13.810233403047594z" style="fill:rgb(153,221,255); fill-opacity: 0.4"></path><path d="M-68.798947758712,-14.564756333867331L-63.411645729069654,-13.810233403047592M-63.41164534977128,-13.810233526241866L-52.080055960122465,-9.789296249324286M-54.45150049400233,-13.307485183176409L-54.45150049400233,6.286070152111445M-54.45150049400233,6.286070152111445L-32.06915301459865,9.420847880529731" style="fill:none;stroke:rgb(0,0,0);stroke-width:1;stroke-linecap:round"></path><path d="M-63.411645777700194,-13.810233409858581L-63.411645777700194,-8.431866087457072L-52.080056325195066,-9.789296493075136z" style="fill:rgb(255,187,187); fill-opacity: 0.4"></path><path d="M-32.06915301459865,-10.17270745475812L-24.53182339090762,-17.348143281782125L-46.91417087031131,-20.48292101020041zM11.798595219777392,6.325002680457123L-15.393477499840753,2.5165950042994463L-15.393477499840753,-13.598152389364177zM-70.96694403228672,8.848359065994943L-65.57964200264436,9.602881996814682L-65.57964200264436,-16.856953831661666z" style="fill:rgb(238,238,238); fill-opacity: 0.42"></path><path d="M11.79859521977739,-9.7897447132065L-15.393477499840753,-13.598152389364177M-15.393477499840753,-13.598152389364177L-21.592564946201556,-7.696705009689987" style="fill:none;stroke:rgb(0,0,0);stroke-width:1;stroke-linecap:round"></path><path d="M-21.59256494620156,8.418042383973635L-15.393477499840753,2.5165950042994463L11.798595219777392,6.325002680457123zM-70.96694403228672,-17.611476762481402L-70.96694403228672,8.848359065994943L-65.57964200264436,-16.856953831661666zM-54.45150049400233,-13.307485183176407L-32.06915301459865,-10.17270745475812L-46.91417087031131,-20.48292101020041zM-15.393477499840753,-13.598152389364177L-15.393477499840753,2.5165950042994463L-21.59256494620156,-7.696705009689989z" style="fill:rgb(238,238,238); fill-opacity: 0.42"></path><path d="M11.79859521977739,-9.7897447132065L11.79859521977739,6.325002680457123M11.79859521977739,6.325002680457123L5.5995077734165895,12.22645006013131" style="fill:none;stroke:rgb(0,0,0);stroke-width:1;stroke-linecap:round"></path><path d="M11.798595219777392,-9.789744713206499L11.798595219777392,6.325002680457123L-15.393477499840753,-13.598152389364177z" style="fill:rgb(238,238,238); fill-opacity: 0.42"></path><path d="M-70.96694403228672,-17.611476762481406L-65.57964200264438,-16.856953831661663" style="fill:none;stroke:rgb(0,0,0);stroke-width:1;stroke-linecap:round"></path><path d="M-32.06915301459865,-10.17270745475812L-32.06915301459865,9.420847880529733L-24.53182339090762,-17.348143281782125zM-15.393477499840753,2.5165950042994463L-21.59256494620156,8.418042383973635L-21.59256494620156,-7.696705009689989z" style="fill:rgb(238,238,238); fill-opacity: 0.42"></path><path d="M-54.45150049400233,-13.307485183176409L-32.06915301459865,-10.172707454758122" style="fill:none;stroke:rgb(0,0,0);stroke-width:1;stroke-linecap:round"></path><path d="M-54.45150049400233,-13.307485183176407L-54.45150049400233,6.286070152111445L-32.06915301459865,-10.17270745475812zM-54.45150049400233,6.286070152111445L-32.06915301459865,9.420847880529733L-32.06915301459865,-10.17270745475812z" style="fill:rgb(238,238,238); fill-opacity: 0.42"></path><path d="M-32.06915301459865,-10.172707454758122L-32.06915301459865,9.420847880529731M-21.592564946201556,-7.696705009689987L-21.592564946201556,8.418042383973635M-21.592564946201556,8.418042383973635L5.5995077734165895,12.22645006013131M50.09906994568706,10.653019936775717L20.91870522169179,6.56614042031402M20.91870522169179,-5.974986969340634L20.91870522169179,6.56614042031402M20.91870522169179,6.56614042031402L16.094332647599266,11.158877840507088M11.79859521977739,-9.7897447132065L5.5995077734165895,-3.888297333532311" style="fill:none;stroke:rgb(0,0,0);stroke-width:1;stroke-linecap:round"></path><path d="M5.599507773416589,12.226450060131313L-21.59256494620156,8.418042383973635L11.798595219777392,6.325002680457123zM5.599507773416589,12.226450060131313L11.798595219777392,6.325002680457123L11.798595219777392,-9.789744713206499z" style="fill:rgb(238,238,238); fill-opacity: 0.42"></path><path d="M6.897040072652079,-2.688712326626846L-20.295032646966064,-6.497120002784523M-20.295032646966064,-7.9639474543485695L-20.295032646966064,-6.497120002784523M-20.295032646966064,-6.497120002784523L-20.859297876748286,-5.959947138140641" style="fill:none;stroke:rgb(0,0,0);stroke-width:1;stroke-linecap:round"></path><path d="M5.599507773416589,-3.8882973335323117L11.798595219777392,-9.789744713206499L-15.393477499840753,-13.598152389364177z" style="fill:rgb(238,238,238); fill-opacity: 0.42"></path><path d="M6.897040072652079,-4.155539778190893L-20.295032646966064,-7.9639474543485695M-20.295032646966064,-7.9639474543485695L-20.859297876748286,-7.426774589704688" style="fill:none;stroke:rgb(0,0,0);stroke-width:1;stroke-linecap:round"></path><path d="M-20.295032646966064,-7.963947454348572L-20.295032646966064,-6.497120002784524L-20.85929787674829,-7.4267745897046895zM-20.295032646966064,-6.497120002784524L-20.85929787674829,-5.959947138140643L-20.85929787674829,-7.4267745897046895z" style="fill:rgb(153,221,255); fill-opacity: 0.4"></path><path d="M-20.859297876748286,-7.426774589704688L-20.859297876748286,-5.959947138140641M-20.859297876748286,-5.959947138140641L6.332774842869855,-2.151539461982964M49.610044344588765,6.178659834125448L20.42967962059349,2.0917803176637517M20.42967962059349,0.624952866099704L20.42967962059349,2.0917803176637517M20.42967962059349,2.0917803176637517L19.865414390811267,2.628953182307633M-20.859297876748286,-7.426774589704688L6.332774842869855,-3.618366913547012M49.610044344588765,4.711832382561401L20.42967962059349,0.624952866099704M20.42967962059349,0.624952866099704L19.865414390811267,1.162125730743586" style="fill:none;stroke:rgb(0,0,0);stroke-width:1;stroke-linecap:round"></path><path d="M20.429679620593493,0.6249528660997041L20.429679620593493,2.0917803176637513L19.865414390811267,1.162125730743586z" style="fill:rgb(153,221,255); fill-opacity: 0.4"></path><path d="M-21.59256494620156,-7.696705009689989L5.599507773416589,-3.8882973335323117L-15.393477499840753,-13.598152389364177z" style="fill:rgb(238,238,238); fill-opacity: 0.42"></path><path d="M20.429679620593493,2.0917803176637513L19.865414390811267,2.628953182307633L19.865414390811267,1.162125730743586z" style="fill:rgb(153,221,255); fill-opacity: 0.4"></path><path d="M19.865414390811267,1.162125730743586L19.865414390811267,2.628953182307633M19.865414390811267,2.628953182307633L49.04577911480654,6.71583269876933M50.09906994568706,-1.8881074528789366L20.91870522169179,-5.974986969340634M20.91870522169179,-5.974986969340634L16.094332647599266,-1.3822495491475648M19.865414390811267,1.162125730743586L49.04577911480654,5.249005247205282" style="fill:none;stroke:rgb(0,0,0);stroke-width:1;stroke-linecap:round"></path><path d="M6.8970400726520795,-2.6887123266268462L-20.295032646966064,-6.497120002784524L-20.295032646966064,-7.963947454348572z" style="fill:rgb(153,221,255); fill-opacity: 0.4"></path><path d="M50.09906994568706,10.653019936775717L20.91870522169179,6.56614042031402L20.91870522169179,-5.974986969340634z" style="fill:rgb(238,238,238); fill-opacity: 0.42"></path><path d="M-20.85929787674829,-5.959947138140643L-20.295032646966064,-6.497120002784524L6.8970400726520795,-2.6887123266268462z" style="fill:rgb(153,221,255); fill-opacity: 0.4"></path><path d="M-21.592564946201556,-7.696705009689987L5.5995077734165895,-3.888297333532311" style="fill:none;stroke:rgb(0,0,0);stroke-width:1;stroke-linecap:round"></path><path d="M-20.85929787674829,-7.4267745897046895L6.332774842869855,-3.6183669135470127L-20.295032646966064,-7.963947454348572zM-20.85929787674829,-7.4267745897046895L-20.85929787674829,-5.959947138140643L6.332774842869855,-3.6183669135470127zM49.61004434458877,6.178659834125448L20.429679620593493,2.0917803176637513L20.429679620593493,0.6249528660997041z" style="fill:rgb(153,221,255); fill-opacity: 0.4"></path><path d="M-21.59256494620156,-7.696705009689989L-21.59256494620156,8.418042383973635L5.599507773416589,-3.8882973335323117z" style="fill:rgb(238,238,238); fill-opacity: 0.42"></path><path d="M19.865414390811267,2.628953182307633L20.429679620593493,2.0917803176637513L49.61004434458877,6.178659834125448z" style="fill:rgb(153,221,255); fill-opacity: 0.4"></path><path d="M20.91870522169179,-5.974986969340634L20.91870522169179,6.56614042031402L16.094332647599266,-1.3822495491475648zM16.094332647599266,11.158877840507088L20.91870522169179,6.56614042031402L50.09906994568706,10.653019936775717zM-21.59256494620156,8.418042383973635L5.599507773416589,12.226450060131313L5.599507773416589,-3.8882973335323117z" style="fill:rgb(238,238,238); fill-opacity: 0.42"></path><path d="M19.865414390811267,1.162125730743586L49.04577911480654,5.249005247205282L20.429679620593493,0.6249528660997041zM19.865414390811267,1.162125730743586L19.865414390811267,2.628953182307633L49.04577911480654,5.249005247205282z" style="fill:rgb(153,221,255); fill-opacity: 0.4"></path><path d="M5.599507773416589,-3.8882973335323117L5.599507773416589,12.226450060131313L11.798595219777392,-9.789744713206499z" style="fill:rgb(238,238,238); fill-opacity: 0.42"></path><path d="M6.8970400726520795,-4.155539778190895L6.8970400726520795,-2.6887123266268462L-20.295032646966064,-7.963947454348572zM6.332774842869855,-2.151539461982965L-20.85929787674829,-5.959947138140643L6.8970400726520795,-2.6887123266268462z" style="fill:rgb(153,221,255); fill-opacity: 0.4"></path><path d="M5.5995077734165895,-3.888297333532311L5.5995077734165895,12.22645006013131" style="fill:none;stroke:rgb(0,0,0);stroke-width:1;stroke-linecap:round"></path><path d="M6.332774842869855,-3.6183669135470127L6.8970400726520795,-4.155539778190895L-20.295032646966064,-7.963947454348572z" style="fill:rgb(153,221,255); fill-opacity: 0.4"></path><path d="M20.91870522169179,6.56614042031402L16.094332647599266,11.158877840507088L16.094332647599266,-1.3822495491475648z" style="fill:rgb(238,238,238); fill-opacity: 0.42"></path><path d="M-20.85929787674829,-5.959947138140643L6.332774842869855,-2.151539461982965L6.332774842869855,-3.6183669135470127z" style="fill:rgb(153,221,255); fill-opacity: 0.4"></path><path d="M50.09906994568706,-1.8881074528789366L50.09906994568706,10.653019936775717L20.91870522169179,-5.974986969340634z" style="fill:rgb(238,238,238); fill-opacity: 0.42"></path><path d="M50.09906994568706,-1.8881074528789366L50.09906994568706,10.653019936775717M50.09906994568706,10.653019936775717L45.27469737159454,15.245757356968786" style="fill:none;stroke:rgb(0,0,0);stroke-width:1;stroke-linecap:round"></path><path d="M49.61004434458877,4.711832382561401L49.61004434458877,6.178659834125448L20.429679620593493,0.6249528660997041zM49.04577911480654,6.71583269876933L19.865414390811267,2.628953182307633L49.61004434458877,6.178659834125448zM49.04577911480654,5.249005247205282L49.61004434458877,4.711832382561401L20.429679620593493,0.6249528660997041z" style="fill:rgb(153,221,255); fill-opacity: 0.4"></path><path d="M6.8970396591229175,-4.155539849002569L6.8970396591229175,-2.688712397438522M6.8970396591229175,-2.688712397438522L6.332774429340693,-2.1515395327946396M6.8970396591229175,-2.688712397438522L16.884556502091428,-0.8104325275713103M6.897040072652079,-4.155539778190893L6.897040072652079,-2.688712326626846M6.897040072652079,-2.688712326626846L6.332774842869855,-2.151539461982964" style="fill:none;stroke:rgb(0,0,0);stroke-width:1;stroke-linecap:round"></path><path d="M19.865414390811267,2.628953182307633L49.04577911480654,6.71583269876933L49.04577911480654,5.249005247205282z" style="fill:rgb(153,221,255); fill-opacity: 0.4"></path><path d="M16.094332647599266,-1.3822495491475648L16.094332647599266,11.158877840507088M16.094332647599266,11.158877840507088L45.27469737159454,15.245757356968786M6.8970396591229175,-4.155539849002569L6.332774429340693,-3.6183669843586874M6.8970396591229175,-4.155539849002569L16.884556502091428,-0.8104325275713103M6.897040072652079,-4.155539778190893L6.332774842869855,-3.618366913547012" style="fill:none;stroke:rgb(0,0,0);stroke-width:1;stroke-linecap:round"></path><path d="M6.897040035292411,-4.155539783423333L6.897040035292411,-2.688712331859285L6.332774805510187,-2.1515394672154033z" style="fill:rgb(255,187,187); fill-opacity: 0.4"></path><path d="M6.332774842869855,-2.151539461982965L6.8970400726520795,-2.6887123266268462L6.8970400726520795,-4.155539778190895z" style="fill:rgb(153,221,255); fill-opacity: 0.4"></path><path d="M6.897040035292411,-2.688712331859285L6.897040035292411,-4.155539783423333L16.884556014784224,-0.8104324621913113zM6.897040035292411,-4.155539783423333L6.332774805510187,-2.1515394672154033L6.332774805510187,-3.6183669187794516z" style="fill:rgb(255,187,187); fill-opacity: 0.4"></path><path d="M6.332774842869855,-3.6183669135470127L6.332774842869855,-2.151539461982965L6.8970400726520795,-4.155539778190895z" style="fill:rgb(153,221,255); fill-opacity: 0.4"></path><path d="M6.332774429340693,-2.1515395327946396L6.332774429340693,-3.6183669843586874M6.332774429340693,-2.1515395327946396L16.884556502091428,-0.8104325275713103M6.332774842869855,-3.618366913547012L6.332774842869855,-2.151539461982964" style="fill:none;stroke:rgb(0,0,0);stroke-width:1;stroke-linecap:round"></path><path d="M6.332774805510187,-2.1515394672154033L6.897040035292411,-2.688712331859285L16.884556014784224,-0.8104324621913113zM6.897040035292411,-4.155539783423333L6.332774805510187,-3.6183669187794516L16.884556014784224,-0.8104324621913113z" style="fill:rgb(255,187,187); fill-opacity: 0.4"></path><path d="M6.332774429340693,-3.6183669843586874L16.884556502091428,-0.8104325275713103" style="fill:none;stroke:rgb(0,0,0);stroke-width:1;stroke-linecap:round"></path><path d="M6.332774805510187,-3.6183669187794516L6.332774805510187,-2.1515394672154033L16.884556014784224,-0.8104324621913113z" style="fill:rgb(255,187,187); fill-opacity: 0.4"></path><path d="M49.610044344588765,4.711832382561401L49.610044344588765,6.178659834125448M49.610044344588765,6.178659834125448L49.04577911480654,6.71583269876933M49.61004637168013,4.711832698805124L49.61004637168013,6.1786601795124145M49.61004637168013,6.1786601795124145L49.045781141897905,6.715833044156296M49.61004637168013,6.1786601795124145L59.135380845861,7.08742559929696M89.08690253142679,16.113492274699308L59.90653780743151,12.02661275823761M59.90653780743151,-0.5145146314170442L59.90653780743151,12.02661275823761M59.90653780743151,12.02661275823761L55.08216523333898,16.61935017843068M49.610044344588765,4.711832382561401L49.04577911480654,5.249005247205282M49.61004637168013,4.711832698805124L49.045781141897905,5.249005563449006M49.61004637168013,4.711832698805124L59.135380845861,7.08742559929696" style="fill:none;stroke:rgb(0,0,0);stroke-width:1;stroke-linecap:round"></path><path d="M49.04577911480654,6.71583269876933L49.61004434458877,6.178659834125448L49.61004434458877,4.711832382561401z" style="fill:rgb(153,221,255); fill-opacity: 0.4"></path><path d="M49.61004473092499,4.711832436670032L49.61004473092499,6.178659888234079L49.04577950114276,6.715832752877961z" style="fill:rgb(255,187,187); fill-opacity: 0.4"></path><path d="M45.27469737159455,15.245757356968786L16.094332647599266,11.158877840507088L50.09906994568706,10.653019936775717z" style="fill:rgb(238,238,238); fill-opacity: 0.42"></path><path d="M49.04577911480654,5.249005247205282L49.04577911480654,6.71583269876933L49.61004434458877,4.711832382561401z" style="fill:rgb(153,221,255); fill-opacity: 0.4"></path><path d="M49.61004473092499,4.711832436670032L49.04577950114276,6.715832752877961L49.04577950114276,5.249005301313914z" style="fill:rgb(255,187,187); fill-opacity: 0.4"></path><path d="M49.04577911480654,5.249005247205282L49.04577911480654,6.71583269876933M49.045781141897905,6.715833044156296L49.045781141897905,5.249005563449006M49.045781141897905,6.715833044156296L59.135380845861,7.08742559929696" style="fill:none;stroke:rgb(0,0,0);stroke-width:1;stroke-linecap:round"></path><path d="M49.61004473092499,6.178659888234079L49.61004473092499,4.711832436670032L59.13537920510587,7.087425308018626z" style="fill:rgb(255,187,187); fill-opacity: 0.4"></path><path d="M50.09906994568706,-1.8881074528789366L45.27469737159454,2.7046299673141325M49.045781141897905,5.249005563449006L59.135380845861,7.08742559929696" style="fill:none;stroke:rgb(0,0,0);stroke-width:1;stroke-linecap:round"></path><path d="M49.04577950114276,6.715832752877961L49.61004473092499,6.178659888234079L59.13537920510587,7.087425308018626z" style="fill:rgb(255,187,187); fill-opacity: 0.4"></path><path d="M45.27469737159455,2.7046299673141325L50.09906994568706,-1.8881074528789366L20.91870522169179,-5.974986969340634z" style="fill:rgb(238,238,238); fill-opacity: 0.42"></path><path d="M49.61004473092499,4.711832436670032L49.04577950114276,5.249005301313914L59.13537920510587,7.087425308018626z" style="fill:rgb(255,187,187); fill-opacity: 0.4"></path><path d="M45.27469737159455,15.245757356968786L50.09906994568706,10.653019936775717L50.09906994568706,-1.8881074528789366z" style="fill:rgb(238,238,238); fill-opacity: 0.42"></path><path d="M49.04577950114276,5.249005301313914L49.04577950114276,6.715832752877961L59.13537920510587,7.087425308018626z" style="fill:rgb(255,187,187); fill-opacity: 0.4"></path><path d="M16.094332647599266,-1.3822495491475648L45.27469737159455,2.7046299673141325L20.91870522169179,-5.974986969340634z" style="fill:rgb(238,238,238); fill-opacity: 0.42"></path><path d="M16.094332647599266,-1.3822495491475648L45.27469737159454,2.7046299673141325" style="fill:none;stroke:rgb(0,0,0);stroke-width:1;stroke-linecap:round"></path><path d="M16.094332647599266,-1.3822495491475648L16.094332647599266,11.158877840507088L45.27469737159455,2.7046299673141325z" style="fill:rgb(238,238,238); fill-opacity: 0.42"></path><path d="M89.08690253142679,3.572364885044653L59.90653780743151,-0.5145146314170442M59.90653780743151,-0.5145146314170442L55.08216523333898,4.078222788776025" style="fill:none;stroke:rgb(0,0,0);stroke-width:1;stroke-linecap:round"></path><path d="M89.08690253142677,16.113492274699308L59.906537807431505,12.02661275823761L59.906537807431505,-0.5145146314170442zM16.094332647599266,11.158877840507088L45.27469737159455,15.245757356968786L45.27469737159455,2.7046299673141325zM59.906537807431505,-0.5145146314170442L59.906537807431505,12.02661275823761L55.08216523333898,4.078222788776025zM55.08216523333898,16.61935017843068L59.906537807431505,12.02661275823761L89.08690253142677,16.113492274699308zM45.27469737159455,2.7046299673141325L45.27469737159455,15.245757356968786L50.09906994568706,-1.8881074528789366z" style="fill:rgb(238,238,238); fill-opacity: 0.42"></path><path d="M45.27469737159454,2.7046299673141325L45.27469737159454,15.245757356968786M86.85968406032018,9.203463867857975L57.6793193363249,5.116584351396278M57.6793193363249,3.6497568998322305L57.6793193363249,5.116584351396278M57.6793193363249,5.116584351396278L57.11505410654268,5.65375721604016" style="fill:none;stroke:rgb(0,0,0);stroke-width:1;stroke-linecap:round"></path><path d="M59.906537807431505,12.02661275823761L55.08216523333898,16.61935017843068L55.08216523333898,4.078222788776025z" style="fill:rgb(238,238,238); fill-opacity: 0.42"></path><path d="M86.85968406032018,7.736636416293928L57.6793193363249,3.6497568998322305M57.6793193363249,3.6497568998322305L57.11505410654268,4.186929764476112" style="fill:none;stroke:rgb(0,0,0);stroke-width:1;stroke-linecap:round"></path><path d="M57.679319336324895,3.6497568998322305L57.679319336324895,5.116584351396278L57.11505410654268,4.186929764476112zM57.679319336324895,5.116584351396278L57.11505410654268,5.65375721604016L57.11505410654268,4.186929764476112z" style="fill:rgb(153,221,255); fill-opacity: 0.4"></path><path d="M89.08690253142677,3.572364885044653L89.08690253142677,16.113492274699308L59.906537807431505,-0.5145146314170442z" style="fill:rgb(238,238,238); fill-opacity: 0.42"></path><path d="M57.11505410654268,4.186929764476112L57.11505410654268,5.65375721604016M57.11505410654268,5.65375721604016L86.29541883053795,9.740636732501857M89.08690253142679,3.572364885044653L89.08690253142679,16.113492274699308M89.08690253142679,16.113492274699308L84.26252995733425,20.706229694892375M57.11505410654268,4.186929764476112L86.29541883053795,8.27380928093781M55.08216523333898,4.078222788776025L55.08216523333898,16.61935017843068M55.08216523333898,16.61935017843068L84.26252995733425,20.706229694892375" style="fill:none;stroke:rgb(0,0,0);stroke-width:1;stroke-linecap:round"></path><path d="M86.85968406032016,9.203463867857975L57.679319336324895,5.116584351396278L57.679319336324895,3.6497568998322305zM57.11505410654268,5.65375721604016L57.679319336324895,5.116584351396278L86.85968406032016,9.203463867857975zM57.11505410654268,4.186929764476112L86.29541883053794,8.27380928093781L57.679319336324895,3.6497568998322305z" style="fill:rgb(153,221,255); fill-opacity: 0.4"></path><path d="M126.08644268909345,21.2954927129778L98.8943699694753,17.487085036820126M98.8943699694753,4.945957647165474L98.8943699694753,17.487085036820126M98.8943699694753,17.487085036820126L94.06999739538279,22.079822457013197" style="fill:none;stroke:rgb(0,0,0);stroke-width:1;stroke-linecap:round"></path><path d="M57.11505410654268,4.186929764476112L57.11505410654268,5.65375721604016L86.29541883053794,8.27380928093781z" style="fill:rgb(153,221,255); fill-opacity: 0.4"></path><path d="M84.26252995733425,20.70622969489238L55.08216523333898,16.61935017843068L89.08690253142677,16.113492274699308z" style="fill:rgb(238,238,238); fill-opacity: 0.42"></path><path d="M89.08690253142679,3.572364885044653L84.26252995733425,8.165102305237722" style="fill:none;stroke:rgb(0,0,0);stroke-width:1;stroke-linecap:round"></path><path d="M84.26252995733425,8.165102305237722L89.08690253142677,3.572364885044653L59.906537807431505,-0.5145146314170442zM84.26252995733425,20.70622969489238L89.08690253142677,16.113492274699308L89.08690253142677,3.572364885044653zM55.08216523333898,4.078222788776025L84.26252995733425,8.165102305237722L59.906537807431505,-0.5145146314170442z" style="fill:rgb(238,238,238); fill-opacity: 0.42"></path><path d="M86.85968406032016,7.736636416293928L86.85968406032016,9.203463867857975L57.679319336324895,3.6497568998322305z" style="fill:rgb(153,221,255); fill-opacity: 0.4"></path><path d="M55.08216523333898,4.078222788776025L84.26252995733425,8.165102305237722" style="fill:none;stroke:rgb(0,0,0);stroke-width:1;stroke-linecap:round"></path><path d="M86.29541883053794,9.740636732501857L57.11505410654268,5.65375721604016L86.85968406032016,9.203463867857975zM86.29541883053794,8.27380928093781L86.85968406032016,7.736636416293928L57.679319336324895,3.6497568998322305zM57.11505410654268,5.65375721604016L86.29541883053794,9.740636732501857L86.29541883053794,8.27380928093781z" style="fill:rgb(153,221,255); fill-opacity: 0.4"></path><path d="M55.08216523333898,4.078222788776025L55.08216523333898,16.61935017843068L84.26252995733425,8.165102305237722zM126.08644268909345,21.295492712977804L98.8943699694753,17.48708503682013L98.8943699694753,4.945957647165474z" style="fill:rgb(238,238,238); fill-opacity: 0.42"></path><path d="M126.08644268909345,8.75436532332315L98.8943699694753,4.945957647165474M98.8943699694753,4.945957647165474L94.06999739538279,9.538695067358542M86.85968406032018,7.736636416293928L86.85968406032018,9.203463867857975M86.85968406032018,9.203463867857975L86.29541883053795,9.740636732501857M86.85968534060983,7.73663648534291L86.85968534060983,9.203463936906958M86.85968534060983,9.203463936906958L86.29542012203855,9.740636790878174M86.85968534060983,9.203463936906958L96.38501981479071,10.112229356691502M86.85968406032018,7.736636416293928L86.29541883053795,8.27380928093781M86.85968534060983,7.73663648534291L86.29542012203855,8.273809339314127M86.85968534060983,7.73663648534291L96.38501981479071,10.112229356691502" style="fill:none;stroke:rgb(0,0,0);stroke-width:1;stroke-linecap:round"></path><path d="M86.29541883053794,9.740636732501857L86.85968406032016,9.203463867857975L86.85968406032016,7.736636416293928z" style="fill:rgb(153,221,255); fill-opacity: 0.4"></path><path d="M86.85968444665639,7.7366364704025585L86.85968444665639,9.203463921966605L86.29541921687417,9.740636786610487z" style="fill:rgb(255,187,187); fill-opacity: 0.4"></path><path d="M55.08216523333898,16.61935017843068L84.26252995733425,20.70622969489238L84.26252995733425,8.165102305237722z" style="fill:rgb(238,238,238); fill-opacity: 0.42"></path><path d="M86.29541883053794,8.27380928093781L86.29541883053794,9.740636732501857L86.85968406032016,7.736636416293928z" style="fill:rgb(153,221,255); fill-opacity: 0.4"></path><path d="M86.85968444665639,7.7366364704025585L86.29541921687417,9.740636786610487L86.29541921687417,8.27380933504644z" style="fill:rgb(255,187,187); fill-opacity: 0.4"></path><path d="M86.29541883053795,8.27380928093781L86.29541883053795,9.740636732501857M86.29542012203855,9.740636790878174L86.29542012203855,8.273809339314127M86.29542012203855,9.740636790878174L96.38501981479071,10.112229356691502" style="fill:none;stroke:rgb(0,0,0);stroke-width:1;stroke-linecap:round"></path><path d="M86.85968444665639,9.203463921966605L86.85968444665639,7.7366364704025585L96.38501892083727,10.112229341751153z" style="fill:rgb(255,187,187); fill-opacity: 0.4"></path><path d="M94.06999739538279,22.079822457013197L98.8943699694753,17.48708503682013L126.08644268909345,21.295492712977804zM98.8943699694753,4.945957647165474L98.8943699694753,17.48708503682013L94.06999739538279,9.538695067358542z" style="fill:rgb(238,238,238); fill-opacity: 0.42"></path><path d="M86.29542012203855,8.273809339314127L96.38501981479071,10.112229356691502" style="fill:none;stroke:rgb(0,0,0);stroke-width:1;stroke-linecap:round"></path><path d="M86.29541921687417,9.740636786610487L86.85968444665639,9.203463921966605L96.38501892083727,10.112229341751153z" style="fill:rgb(255,187,187); fill-opacity: 0.4"></path><path d="M84.26252995733425,8.165102305237722L84.26252995733425,20.70622969489238L89.08690253142677,3.572364885044653z" style="fill:rgb(238,238,238); fill-opacity: 0.42"></path><path d="M86.85968444665639,7.7366364704025585L86.29541921687417,8.27380933504644L96.38501892083727,10.112229341751153zM86.29541921687417,8.27380933504644L86.29541921687417,9.740636786610487L96.38501892083727,10.112229341751153z" style="fill:rgb(255,187,187); fill-opacity: 0.4"></path><path d="M84.26252995733425,8.165102305237722L84.26252995733425,20.706229694892375" style="fill:none;stroke:rgb(0,0,0);stroke-width:1;stroke-linecap:round"></path><path d="M98.8943699694753,17.48708503682013L94.06999739538279,22.079822457013197L94.06999739538279,9.538695067358542z" style="fill:rgb(238,238,238); fill-opacity: 0.42"></path><path d="M126.08644268909345,8.75436532332315L126.08644268909345,21.2954927129778M126.08644268909345,21.2954927129778L121.26207011500094,25.88823013317087" style="fill:none;stroke:rgb(0,0,0);stroke-width:1;stroke-linecap:round"></path><path d="M126.08644268909345,8.75436532332315L126.08644268909345,21.295492712977804L98.8943699694753,4.945957647165474z" style="fill:rgb(238,238,238); fill-opacity: 0.42"></path><path d="M94.06999739538279,9.538695067358542L94.06999739538279,22.079822457013197M94.06999739538279,22.079822457013197L121.26207011500094,25.88823013317087M139.23210183632514,37.428401923205975L135.83309274637287,36.95235096368627M135.83309274637287,-0.32765199301218256L135.83309274637287,36.95235096368627M135.83309274637287,36.95235096368627L134.52936323241858,38.19348382243408" style="fill:none;stroke:rgb(0,0,0);stroke-width:1;stroke-linecap:round"></path><path d="M121.26207011500094,25.888230133170875L94.06999739538279,22.079822457013197L126.08644268909345,21.295492712977804z" style="fill:rgb(238,238,238); fill-opacity: 0.42"></path><path d="M139.23210183632514,0.14839896650752743L139.23210183632514,37.428401923205975M139.23210183632514,37.428401923205975L137.92837232237085,38.669534781953786M126.08644268909345,8.75436532332315L121.26207011500094,13.347102743516219" style="fill:none;stroke:rgb(0,0,0);stroke-width:1;stroke-linecap:round"></path><path d="M134.52936323241858,38.19348382243408L135.83309274637287,36.95235096368627L139.2321018363251,37.428401923205975zM121.26207011500094,25.888230133170875L126.08644268909345,21.295492712977804L126.08644268909345,8.75436532332315zM121.26207011500094,13.347102743516219L126.08644268909345,8.75436532332315L98.8943699694753,4.945957647165474zM94.06999739538279,9.538695067358542L121.26207011500094,13.347102743516219L98.8943699694753,4.945957647165474zM137.92837232237085,38.669534781953786L134.52936323241858,38.19348382243408L139.2321018363251,37.428401923205975z" style="fill:rgb(238,238,238); fill-opacity: 0.42"></path><path d="M134.52936323241858,0.9134808657356284L134.52936323241858,38.19348382243408M134.52936323241858,38.19348382243408L137.92837232237085,38.669534781953786M94.06999739538279,9.538695067358542L121.26207011500094,13.347102743516219M137.92837232237085,1.3895318252553384L137.92837232237085,38.669534781953786M152.43857800600944,39.2780455946622L149.03956891605716,38.80199463514249M149.03956891605716,1.5219916784440461L149.03956891605716,38.80199463514249M149.03956891605716,38.80199463514249L147.7358394021029,40.04312749389031" style="fill:none;stroke:rgb(0,0,0);stroke-width:1;stroke-linecap:round"></path><path d="M94.06999739538279,9.538695067358542L94.06999739538279,22.079822457013197L121.26207011500094,13.347102743516219zM139.2321018363251,37.428401923205975L135.83309274637287,36.95235096368627L135.83309274637287,-0.32765199301218445z" style="fill:rgb(238,238,238); fill-opacity: 0.42"></path><path d="M125.86413425944727,17.628002837782606L131.42169894325474,18.40637204195456M152.43857800600944,1.9980426379637561L152.43857800600944,39.2780455946622M152.43857800600944,39.2780455946622L151.13484849205517,40.51917845341002" style="fill:none;stroke:rgb(0,0,0);stroke-width:1;stroke-linecap:round"></path><path d="M147.7358394021029,40.04312749389031L149.0395689160572,38.80199463514249L152.4385780060095,39.2780455946622zM94.06999739538279,22.079822457013197L121.26207011500094,25.888230133170875L121.26207011500094,13.347102743516219zM135.83309274637287,36.95235096368627L134.52936323241858,38.19348382243408L134.52936323241858,0.9134808657356266zM137.92837232237085,38.669534781953786L139.2321018363251,37.428401923205975L139.2321018363251,0.14839896650752557zM121.26207011500094,13.347102743516219L121.26207011500094,25.888230133170875L126.08644268909345,8.75436532332315zM151.13484849205517,40.51917845341002L147.7358394021029,40.04312749389031L152.4385780060095,39.2780455946622z" style="fill:rgb(238,238,238); fill-opacity: 0.42"></path><path d="M147.7358394021029,2.763124537191857L147.7358394021029,40.04312749389031M147.7358394021029,40.04312749389031L151.13484849205517,40.51917845341002" style="fill:none;stroke:rgb(0,0,0);stroke-width:1;stroke-linecap:round"></path><path d="M130.97449216234978,19.209835698975276L131.42169894325474,19.628728251591262L134.69085463961207,18.86423627970277z" style="fill:rgb(0,0,0)"></path><path d="M121.26207011500094,13.347102743516219L121.26207011500094,25.88823013317087" style="fill:none;stroke:rgb(0,0,0);stroke-width:1;stroke-linecap:round"></path><path d="M131.698087923056,17.154346515722388L131.14530996345349,17.680583654569816L134.69085463961207,18.86423627970277zM131.14530996345349,17.680583654569816L130.97449216234978,19.209835698975276L134.69085463961207,18.86423627970277z" style="fill:rgb(0,0,0)"></path><path d="M134.52936323241858,38.19348382243408L137.92837232237085,38.669534781953786L137.92837232237085,1.3895318252553364z" style="fill:rgb(238,238,238); fill-opacity: 0.42"></path><path d="M151.13484849205517,3.239175496711567L151.13484849205517,40.51917845341002" style="fill:none;stroke:rgb(0,0,0);stroke-width:1;stroke-linecap:round"></path><path d="M152.4385780060095,39.2780455946622L149.0395689160572,38.80199463514249L149.0395689160572,1.5219916784440441z" style="fill:rgb(238,238,238); fill-opacity: 0.42"></path><path d="M165.6450541756938,39.37516290896462L162.2460450857415,38.89911194944491M162.2460450857415,5.124161707054099L162.2460450857415,38.89911194944491M162.2460450857415,38.89911194944491L160.94231557178725,40.14024480819272M139.07061042913162,19.477646509238834L144.6281751129391,20.256015713410786" style="fill:none;stroke:rgb(0,0,0);stroke-width:1;stroke-linecap:round"></path><path d="M139.2321018363251,0.14839896650752557L139.2321018363251,37.428401923205975L135.83309274637287,-0.32765199301218445zM135.83309274637287,-0.32765199301218445L135.83309274637287,36.95235096368627L134.52936323241858,0.9134808657356266z" style="fill:rgb(238,238,238); fill-opacity: 0.42"></path><path d="M165.6450541756938,5.600212666573809L165.6450541756938,39.37516290896462M165.6450541756938,39.37516290896462L164.34132466173952,40.61629576771243" style="fill:none;stroke:rgb(0,0,0);stroke-width:1;stroke-linecap:round"></path><path d="M160.94231557178725,40.14024480819272L162.24604508574154,38.89911194944491L165.64505417569382,39.37516290896462zM149.0395689160572,38.80199463514249L147.7358394021029,40.04312749389031L147.7358394021029,2.7631245371918554zM151.13484849205517,40.51917845341002L152.4385780060095,39.2780455946622L152.4385780060095,1.9980426379637541z" style="fill:rgb(238,238,238); fill-opacity: 0.42"></path><path d="M144.18096833203407,21.059479370431507L144.62817511293906,21.478371923047497L147.8973308092964,20.713879951158997zM144.90456409274032,19.00399018717862L144.3517861331378,19.53022732602605L147.8973308092964,20.713879951158997z" style="fill:rgb(0,0,0)"></path><path d="M164.34132466173952,40.61629576771243L160.94231557178725,40.14024480819272L165.64505417569382,39.37516290896462zM137.92837232237085,1.3895318252553364L137.92837232237085,38.669534781953786L139.2321018363251,0.14839896650752557z" style="fill:rgb(238,238,238); fill-opacity: 0.42"></path><path d="M160.94231557178725,6.3652945658019116L160.94231557178725,40.14024480819272M160.94231557178725,40.14024480819272L164.34132466173952,40.61629576771243" style="fill:none;stroke:rgb(0,0,0);stroke-width:1;stroke-linecap:round"></path><path d="M134.52936323241858,0.9134808657356266L134.52936323241858,38.19348382243408L137.92837232237085,1.3895318252553364z" style="fill:rgb(238,238,238); fill-opacity: 0.42"></path><path d="M144.3517861331378,19.53022732602605L144.18096833203407,21.059479370431507L147.8973308092964,20.713879951158997z" style="fill:rgb(0,0,0)"></path><path d="M147.7358394021029,40.04312749389031L151.13484849205517,40.51917845341002L151.13484849205517,3.239175496711565z" style="fill:rgb(238,238,238); fill-opacity: 0.42"></path><path d="M164.34132466173952,6.841345525321622L164.34132466173952,40.61629576771243M139.23210183632514,0.14839896650752743L135.83309274637287,-0.32765199301218256M135.83309274637287,-0.32765199301218256L134.52936323241858,0.9134808657356284" style="fill:none;stroke:rgb(0,0,0);stroke-width:1;stroke-linecap:round"></path><path d="M165.64505417569382,39.37516290896462L162.24604508574154,38.89911194944491L162.24604508574154,5.124161707054097z" style="fill:rgb(238,238,238); fill-opacity: 0.42"></path><path d="M152.27708659881597,21.327290180695066L157.83465128262344,22.10565938486702" style="fill:none;stroke:rgb(0,0,0);stroke-width:1;stroke-linecap:round"></path><path d="M152.4385780060095,1.9980426379637541L152.4385780060095,39.2780455946622L149.0395689160572,1.5219916784440441zM149.0395689160572,1.5219916784440441L149.0395689160572,38.80199463514249L147.7358394021029,2.7631245371918554z" style="fill:rgb(238,238,238); fill-opacity: 0.42"></path><path d="M139.23210183632514,0.14839896650752743L137.92837232237085,1.3895318252553384" style="fill:none;stroke:rgb(0,0,0);stroke-width:1;stroke-linecap:round"></path><path d="M137.92837232237085,1.3895318252553364L139.2321018363251,0.14839896650752557L135.83309274637287,-0.32765199301218445zM162.24604508574154,38.89911194944491L160.94231557178725,40.14024480819272L160.94231557178725,6.36529456580191zM164.34132466173952,40.61629576771243L165.64505417569382,39.37516290896462L165.64505417569382,5.600212666573807zM134.52936323241858,0.9134808657356266L137.92837232237085,1.3895318252553364L135.83309274637287,-0.32765199301218445z" style="fill:rgb(238,238,238); fill-opacity: 0.42"></path><path d="M157.38744450171842,22.909123041887735L157.83465128262338,23.328015594503725L161.10380697898074,22.563523622615225zM158.11104026242464,20.853633858634847L157.55826230282216,21.37987099748228L161.10380697898074,22.563523622615225z" style="fill:rgb(0,0,0)"></path><path d="M134.52936323241858,0.9134808657356284L137.92837232237085,1.3895318252553384" style="fill:none;stroke:rgb(0,0,0);stroke-width:1;stroke-linecap:round"></path><path d="M151.13484849205517,3.239175496711565L151.13484849205517,40.51917845341002L152.4385780060095,1.9980426379637541zM147.7358394021029,2.7631245371918554L147.7358394021029,40.04312749389031L151.13484849205517,3.239175496711565z" style="fill:rgb(238,238,238); fill-opacity: 0.42"></path><path d="M157.55826230282216,21.37987099748228L157.38744450171842,22.909123041887735L161.10380697898074,22.563523622615225z" style="fill:rgb(0,0,0)"></path><path d="M160.94231557178725,40.14024480819272L164.34132466173952,40.61629576771243L164.34132466173952,6.8413455253216195z" style="fill:rgb(238,238,238); fill-opacity: 0.42"></path><path d="M152.43857800600944,1.9980426379637561L149.03956891605716,1.5219916784440461M149.03956891605716,1.5219916784440461L147.7358394021029,2.763124537191857" style="fill:none;stroke:rgb(0,0,0);stroke-width:1;stroke-linecap:round"></path><path d="M165.64505417569382,5.600212666573807L165.64505417569382,39.37516290896462L162.24604508574154,5.124161707054097zM162.24604508574154,5.124161707054097L162.24604508574154,38.89911194944491L160.94231557178725,6.36529456580191z" style="fill:rgb(238,238,238); fill-opacity: 0.42"></path><path d="M152.43857800600944,1.9980426379637561L151.13484849205517,3.239175496711567" style="fill:none;stroke:rgb(0,0,0);stroke-width:1;stroke-linecap:round"></path><path d="M151.13484849205517,3.239175496711565L152.4385780060095,1.9980426379637541L149.0395689160572,1.5219916784440441zM147.7358394021029,2.7631245371918554L151.13484849205517,3.239175496711565L149.0395689160572,1.5219916784440441zM164.34132466173952,6.8413455253216195L164.34132466173952,40.61629576771243L165.64505417569382,5.600212666573807z" style="fill:rgb(238,238,238); fill-opacity: 0.42"></path><path d="M147.7358394021029,2.763124537191857L151.13484849205517,3.239175496711567" style="fill:none;stroke:rgb(0,0,0);stroke-width:1;stroke-linecap:round"></path><path d="M160.94231557178725,6.36529456580191L160.94231557178725,40.14024480819272L164.34132466173952,6.8413455253216195z" style="fill:rgb(238,238,238); fill-opacity: 0.42"></path><path d="M165.6450541756938,5.600212666573809L162.2460450857415,5.124161707054099M162.2460450857415,5.124161707054099L160.94231557178725,6.3652945658019116M165.6450541756938,5.600212666573809L164.34132466173952,6.841345525321622" style="fill:none;stroke:rgb(0,0,0);stroke-width:1;stroke-linecap:round"></path><path d="M164.34132466173952,6.8413455253216195L165.64505417569382,5.600212666573807L162.24604508574154,5.124161707054097zM160.94231557178725,6.36529456580191L164.34132466173952,6.8413455253216195L162.24604508574154,5.124161707054097z" style="fill:rgb(238,238,238); fill-opacity: 0.42"></path><path d="M160.94231557178725,6.3652945658019116L164.34132466173952,6.841345525321622" style="fill:none;stroke:rgb(0,0,0);stroke-width:1;stroke-linecap:round"></path></svg>